<svg data-v-0dd9719b="" version="1.0" xmlns="http://www.w3.org/2000/svg" xmlns:xlink="http://www.w3.org/1999/xlink" width="100%" height="100%" viewBox="0 0 340.000000 250.000000" preserveAspectRatio="xMidYMid meet" color-interpolation-filters="sRGB" style="margin: auto;"> <rect data-v-0dd9719b="" x="0" y="0" width="100%" height="100%" fill="#fff" fill-opacity="1" class="background"></rect> <rect data-v-0dd9719b="" x="0" y="0" width="100%" height="100%" fill="url(#watermark)" fill-opacity="1" class="watermarklayer"></rect> <g data-v-0dd9719b="" fill="#0691ca" class="icon-text-wrapper icon-svg-group iconsvg" transform="translate(48.86000061035156,94.96756553649902)"><g class="iconsvg-imagesvg" transform="translate(0,0)"><g><rect fill="#0691ca" fill-opacity="0" stroke-width="2" x="0" y="0" width="60" height="60.064870059664436" class="image-rect"></rect> <svg x="0" y="0" width="60" height="60.064870059664436" filtersec="colorsb9854437313" class="image-svg-svg primary" style="overflow: visible;"><svg xmlns="http://www.w3.org/2000/svg" viewBox="-0.000001832979933169554 -0.000013371976820053533 7.487468242645264 7.495560169219971"><g><g fill-rule="evenodd"><path d="M7 5.63a3.76 3.76 0 0 1-6.53-.06 16.63 16.63 0 0 0 1.61.71 4.29 4.29 0 0 0 3.76-.07z" fill="#0691ca"></path><path d="M1.44 5.36C3.26 5 5.6 4.16 7.33 4.54h.09a3.64 3.64 0 0 1-.14.46 17.66 17.66 0 0 0-1.75.7 3.49 3.49 0 0 1-1.67.2l-.57-.07a12.49 12.49 0 0 1-1.85-.47z" fill="#004883"></path><path d="M7.48 3.36a2.55 2.55 0 0 1 0 .39v.31A3.39 3.39 0 0 0 6.93 4c-1.69-.12-4.16.73-5.81 1.28L.53 5l-.36-.13A3.75 3.75 0 0 1 0 3.75a3.85 3.85 0 0 1 .22-1.27 9.46 9.46 0 0 1 3.84.59 6.33 6.33 0 0 0 3.42.29z" fill="#44c2f4"></path><path d="M2.9 2.3l-.48-.09a9 9 0 0 0-2.08 0 3.67 3.67 0 0 1 .75-1.08l.17.07a5.21 5.21 0 0 1 1.44 1z" fill="#004883"></path><path d="M6.82 1.59A3.8 3.8 0 0 1 7.42 3a5.61 5.61 0 0 1-1.21 0 10.61 10.61 0 0 1-1.84-.35.79.79 0 0 0-.21-.07 2.37 2.37 0 0 1-1.22-.71A6.08 6.08 0 0 0 1.51.74a3.85 3.85 0 0 1 .82-.46 7.44 7.44 0 0 0 3.1 1.56 4.6 4.6 0 0 0 1.39-.25z" fill="#0691ca"></path><path d="M3.75 0a3.73 3.73 0 0 1 2.76 1.21c-.23.05-.47.08-.71.11-1 .13-2.12-.57-3.13-1.16A3.86 3.86 0 0 1 3.75 0z" fill="#44c2f4"></path></g></g></svg></svg> <!----></g></g> <g transform="translate(67,2.106182098388672)"><g data-gra="path-name" fill-rule="" class="tp-name iconsvg-namesvg" transform="translate(0,0)"><g transform="scale(1)"><g><path d="M22.5 3.87L22.5 3.87 12.6 3.87 12.6 0.9 21.02 0.9 21.02-14.45 4.37-14.45Q3.51-14.45 3.06-15.16L3.06-15.16Q2.65-15.88 3.1-16.65L3.1-16.65 10.71-29.2 2.38-29.2 2.38-32.17 12.51-32.17 14.98-36.23 17.5-34.65 15.97-32.17 42.66-32.17 42.66-29.2 14.17-29.2 6.97-17.37 21.02-17.37 21.02-26.28 23.98-26.28 23.98-17.37 41.27-17.37 41.27-14.45 23.98-14.45 23.98 2.38Q23.98 3.01 23.56 3.44 23.13 3.87 22.5 3.87L22.5 3.87ZM11.38-11.79L5.35 4.09 2.61 3.06 8.59-12.87 11.38-11.79ZM42.61 3.06L39.82 4.09 33.84-11.79 36.59-12.87 42.61 3.06ZM87.07-17.86L87.07-17.86 85.72-17.86 85.72-15.43 49.01-15.43 49.01-17.86 47.79-17.86 47.79-24.07Q47.79-24.7 48.2-25.13 48.6-25.56 49.23-25.56L49.23-25.56 66.28-25.56 65.61-27.68 68.4-28.62 69.39-25.56 85.59-25.56Q86.22-25.56 86.65-25.13 87.07-24.7 87.07-24.07L87.07-24.07 87.07-17.86ZM87.48 3.92L87.48 3.92 78.25 3.92Q77.63 3.92 77.2 3.49 76.77 3.06 76.77 2.43L76.77 2.43 76.77-6.97 58.27-6.97 49.59 4.27 47.25 2.48 54.54-6.97 47.52-6.97 47.52-9.95 87.21-9.95 87.21-6.97 79.74-6.97 79.74 0.99 87.48 0.99 87.48 3.92ZM78.53-26.91L75.56-26.86 75.56-30.2 59.45-30.2 59.49-26.86 56.52-26.86 56.48-30.2 47.34-30.2 47.34-33.12 56.48-33.12 56.48-36.27 59.45-36.27 59.45-33.12 75.56-33.12 75.56-36.27 78.48-36.27 78.48-33.12 87.66-33.12 87.66-30.2 78.48-30.2 78.53-26.91ZM84.15-18.36L84.15-22.59 50.72-22.59 50.72-18.36 84.15-18.36ZM105.66-18.68L105.66-18.68 101.25-18.68 101.25-12.64 107.19-12.64 107.19-9.67 101.25-9.67 101.25-1.8 106.69-3.1 107.37-0.22 92.88 3.19 92.16 0.32 98.28-1.13 98.28-9.67 92.34-9.67 92.34-12.64 98.28-12.64 98.28-18.68 93.92-18.68Q93.15-18.68 92.7-19.26L92.7-19.26Q92.3-19.89 92.47-20.56L92.47-20.56 95.76-31.68 92.3-31.68 92.3-34.6 107.23-34.6 107.23-31.68 98.86-31.68 95.85-21.64 103.64-21.64 101.03-29.56 103.81-30.46 107.06-20.61Q107.33-19.93 106.88-19.3L106.88-19.3Q106.47-18.68 105.66-18.68L105.66-18.68ZM133.34-16.83L131.99-14.17 129.33-15.52 129.42-13.63 121.81-13.37 121.81-10.17 132.03-10.17 132.03-7.2 127.8-7.2 132.84 1.48 130.28 2.97 124.38-7.2 121.81-7.2 121.81 3.92 118.84 3.92 118.84-7.2 116.23-7.2 110.38 2.97 107.82 1.48 112.81-7.2 108.67-7.2 108.67-10.17 118.84-10.17 118.84-13.23 110.52-12.96 110.43-15.07 108.72-14.17 107.37-16.83 114.48-20.52 108.05-20.52 108.05-23.49 118.84-23.49 118.84-25.88 108.86-25.88 108.86-28.84 118.84-28.84 118.84-31.27 108.45-31.27 108.45-34.24 118.84-34.24 118.84-36.13 121.81-36.13 121.81-34.24 132.21-34.24 132.21-31.27 121.81-31.27 121.81-28.84 131.81-28.84 131.81-25.88 121.81-25.88 121.81-23.49 132.66-23.49 132.66-20.52 126.22-20.52 133.34-16.83ZM120.38-20.2L112.14-15.93 127.44-16.52 120.38-20.2ZM139.91 3.96L139.91 3.96 137.07 3.1 143.24-17.05 136.49-22.5 138.38-24.79 145.84-18.72Q146.21-18.4 146.34-17.98 146.47-17.55 146.34-17.14L146.34-17.14 139.91 3.96ZM177.66 3.28L177.66 3.28 149.94 3.28Q149.31 3.28 148.88 2.88 148.46 2.48 148.46 1.84L148.46 1.84 148.46-34.2Q148.46-34.83 148.88-35.23 149.31-35.64 149.94-35.64L149.94-35.64 176.63-35.64 176.63-32.71 151.38-32.71 151.38 0.36 177.66 0.36 177.66 3.28ZM147.15-29.52L145.26-27.27 136.98-34.38 138.91-36.63 147.15-29.52Z" transform="translate(-2.380000114440918, 36.630001068115234)"></path></g> <!----> <!----> <!----> <!----> <!----> <!----> <!----></g></g> <g data-gra="path-slogan" fill-rule="" class="tp-slogan iconsvg-slogansvg" fill="#0691ca" transform="translate(5,46.900001525878906)"><rect x="0" height="1" y="3.9750003814697266" width="17.22500228881836"></rect> <rect height="1" y="3.9750003814697266" width="17.22500228881836" x="148.05499649047852"></rect> <g transform="translate(20.22500228881836,0)"><g transform="scale(1)"><path d="M4.41 0L0.94 0L0.94-8.58L4.45-8.58Q7.92-8.39 8.06-4.41L8.06-4.41Q7.88-0.09 4.41 0L4.41 0ZM4.27-7.64L2.11-7.64L2.11-0.98L4.36-0.98Q6.80-1.13 6.89-4.31L6.89-4.31Q6.84-7.55 4.27-7.64L4.27-7.64ZM16.31-4.27L16.31-4.27Q16.13-7.64 13.31-7.83L13.31-7.83Q10.45-7.69 10.31-4.27L10.31-4.27Q10.45-0.94 13.31-0.80L13.31-0.80Q16.13-0.98 16.31-4.27ZM17.48-4.27L17.48-4.27Q17.20 0 13.31 0.14L13.31 0.14Q9.38 0 9.09-4.27L9.09-4.27Q9.33-8.72 13.31-8.81L13.31-8.81Q17.20-8.67 17.48-4.27ZM20.25-8.58L24.56-1.64L24.56-8.58L25.69-8.58L25.69 0L24.38 0L20.02-6.94L19.97-6.94L19.97 0L18.84 0L18.84-8.58L20.25-8.58ZM33.89-3.61L31.27-3.61L31.27-4.59L35.02-4.59L35.02 0L34.27 0L33.98-1.08Q33 0.09 31.17 0.14L31.17 0.14Q29.44 0.14 28.50-0.75L28.50-0.75Q27.09-2.06 27.14-4.36L27.14-4.36Q27.47-8.63 31.22-8.81L31.22-8.81Q34.41-8.63 34.88-6L34.88-6L33.75-6Q33.28-7.78 31.17-7.83L31.17-7.83Q28.50-7.64 28.36-4.31L28.36-4.31Q28.36-0.75 31.22-0.75L31.22-0.75Q32.25-0.75 33-1.31L33-1.31Q33.94-2.06 33.89-3.61L33.89-3.61ZM43.22-3.61L40.59-3.61L40.59-4.59L44.34-4.59L44.34 0L43.59 0L43.31-1.08Q42.33 0.09 40.50 0.14L40.50 0.14Q38.77 0.14 37.83-0.75L37.83-0.75Q36.42-2.06 36.47-4.36L36.47-4.36Q36.80-8.63 40.55-8.81L40.55-8.81Q43.73-8.63 44.20-6L44.20-6L43.08-6Q42.61-7.78 40.50-7.83L40.50-7.83Q37.83-7.64 37.69-4.31L37.69-4.31Q37.69-0.75 40.55-0.75L40.55-0.75Q41.58-0.75 42.33-1.31L42.33-1.31Q43.27-2.06 43.22-3.61L43.22-3.61ZM51.80-3.19L51.80-8.58L52.97-8.58L52.97-3.05Q52.83 0.05 49.45 0.14L49.45 0.14Q46.31 0.05 46.17-2.86L46.17-2.86L46.17-8.58L47.34-8.58L47.34-3.19Q47.39-0.84 49.50-0.80L49.50-0.80Q51.80-0.84 51.80-3.19L51.80-3.19ZM60.42 0L59.58-2.48L56.11-2.48L55.22 0L54.05 0L57.28-8.58L58.59-8.58L61.69 0L60.42 0ZM57.84-7.31L56.48-3.52L59.16-3.52L57.89-7.31L57.84-7.31ZM64.13-8.58L68.44-1.64L68.44-8.58L69.56-8.58L69.56 0L68.25 0L63.89-6.94L63.84-6.94L63.84 0L62.72 0L62.72-8.58L64.13-8.58ZM75.52-1.03L80.81-1.03L80.81 0L74.06 0L74.06-0.94L79.31-7.59L74.44-7.59L74.44-8.58L80.81-8.58L80.81-7.59L75.52-1.03ZM83.11-5.06L87.61-5.06L87.61-8.58L88.78-8.58L88.78 0L87.61 0L87.61-3.98L83.11-3.98L83.11 0L81.94 0L81.94-8.58L83.11-8.58L83.11-5.06ZM91.88-1.03L97.03-1.03L97.03 0L90.70 0L90.70-8.58L96.94-8.58L96.94-7.59L91.88-7.59L91.88-4.92L96.56-4.92L96.56-3.89L91.88-3.89L91.88-1.03ZM99.94-8.58L104.25-1.64L104.25-8.58L105.38-8.58L105.38 0L104.06 0L99.70-6.94L99.66-6.94L99.66 0L98.53 0L98.53-8.58L99.94-8.58ZM108.33-5.06L112.83-5.06L112.83-8.58L114-8.58L114 0L112.83 0L112.83-3.98L108.33-3.98L108.33 0L107.16 0L107.16-8.58L108.33-8.58L108.33-5.06ZM121.45-3.19L121.45-8.58L122.63-8.58L122.63-3.05Q122.48 0.05 119.11 0.14L119.11 0.14Q115.97 0.05 115.83-2.86L115.83-2.86L115.83-8.58L117-8.58L117-3.19Q117.05-0.84 119.16-0.80L119.16-0.80Q121.45-0.84 121.45-3.19L121.45-3.19ZM124.59-8.58L125.77-8.58L125.77 0L124.59 0L124.59-8.58Z" transform="translate(-0.9375, 8.8125)"></path></g></g></g></g></g><defs v-gra="od"></defs></svg>